<svg width="225" height="37" viewBox="0 0 225 37" fill="none" xmlns="http://www.w3.org/2000/svg">
<path d="M60.2427 30.384C58.6001 30.384 57.1494 30.1067 55.8907 29.552C54.6321 28.976 53.6401 28.1653 52.9147 27.12C52.1894 26.0533 51.8161 24.7627 51.7947 23.248H56.1147C56.1574 24.2933 56.5308 25.1787 57.2347 25.904C57.9601 26.608 58.9521 26.96 60.2107 26.96C61.2987 26.96 62.1628 26.704 62.8027 26.192C63.4427 25.6587 63.7627 24.9547 63.7627 24.08C63.7627 23.1627 63.4747 22.448 62.8987 21.936C62.3441 21.424 61.5974 21.008 60.6587 20.688C59.7201 20.368 58.7174 20.0267 57.6507 19.664C55.9227 19.0667 54.6001 18.2987 53.6827 17.36C52.7867 16.4213 52.3387 15.1733 52.3387 13.616C52.3174 12.2933 52.6267 11.1627 53.2667 10.224C53.9281 9.264 54.8241 8.528 55.9547 8.016C57.0854 7.48267 58.3867 7.216 59.8587 7.216C61.3521 7.216 62.6641 7.48267 63.7947 8.016C64.9467 8.54933 65.8428 9.296 66.4827 10.256C67.1441 11.216 67.4961 12.3573 67.5387 13.68H63.1547C63.1334 12.8907 62.8241 12.1973 62.2267 11.6C61.6507 10.9813 60.8401 10.672 59.7947 10.672C58.8987 10.6507 58.1414 10.8747 57.5227 11.344C56.9254 11.792 56.6267 12.4533 56.6267 13.328C56.6267 14.0747 56.8614 14.672 57.3307 15.12C57.8001 15.5467 58.4401 15.9093 59.2507 16.208C60.0614 16.5067 60.9894 16.8267 62.0347 17.168C63.1441 17.552 64.1574 18 65.0747 18.512C65.9921 19.024 66.7281 19.7067 67.2827 20.56C67.8374 21.392 68.1147 22.4693 68.1147 23.792C68.1147 24.9653 67.8161 26.0533 67.2188 27.056C66.6214 28.0587 65.7361 28.8693 64.5627 29.488C63.3894 30.0853 61.9494 30.384 60.2427 30.384Z" fill="white"/>
<path d="M76.9045 30.384C74.9205 30.384 73.3845 29.7653 72.2965 28.528C71.2298 27.2907 70.6965 25.4773 70.6965 23.088V14.128H74.7605V22.704C74.7605 24.0693 75.0378 25.1147 75.5925 25.84C76.1472 26.5653 77.0218 26.928 78.2165 26.928C79.3472 26.928 80.2752 26.5227 81.0005 25.712C81.7472 24.9013 82.1205 23.7707 82.1205 22.32V14.128H86.2165V30H82.6005L82.2805 27.312C81.7898 28.2507 81.0752 28.9973 80.1365 29.552C79.2192 30.1067 78.1418 30.384 76.9045 30.384Z" fill="white"/>
<path d="M96.3412 30.384C94.9333 30.384 93.6959 30.16 92.6292 29.712C91.5626 29.2427 90.7092 28.6027 90.0692 27.792C89.4292 26.9813 89.0452 26.0427 88.9173 24.976H93.0452C93.1732 25.5947 93.5146 26.128 94.0693 26.576C94.6452 27.0027 95.3813 27.216 96.2773 27.216C97.1732 27.216 97.8239 27.0347 98.2292 26.672C98.6559 26.3093 98.8692 25.8933 98.8692 25.424C98.8692 24.7413 98.5706 24.2827 97.9733 24.048C97.3759 23.792 96.5439 23.5467 95.4772 23.312C94.7946 23.1627 94.1012 22.9813 93.3972 22.768C92.6932 22.5547 92.0426 22.288 91.4453 21.968C90.8693 21.6267 90.3999 21.2 90.0372 20.688C89.6746 20.1547 89.4932 19.504 89.4932 18.736C89.4932 17.328 90.0479 16.144 91.1572 15.184C92.2879 14.224 93.8666 13.744 95.8932 13.744C97.7706 13.744 99.2639 14.1813 100.373 15.056C101.504 15.9307 102.176 17.136 102.389 18.672H98.5173C98.2826 17.4987 97.3973 16.912 95.8613 16.912C95.0933 16.912 94.4959 17.0613 94.0693 17.36C93.6639 17.6587 93.4613 18.032 93.4613 18.48C93.4613 18.9493 93.7706 19.3227 94.3893 19.6C95.0079 19.8773 95.8292 20.1333 96.8532 20.368C97.9626 20.624 98.9759 20.912 99.8932 21.232C100.832 21.5307 101.579 21.9893 102.133 22.608C102.688 23.2053 102.965 24.0693 102.965 25.2C102.987 26.1813 102.731 27.0667 102.197 27.856C101.664 28.6453 100.896 29.264 99.8932 29.712C98.8906 30.16 97.7066 30.384 96.3412 30.384Z" fill="white"/>
<path d="M112.526 30C110.862 30 109.528 29.5947 108.526 28.784C107.523 27.9733 107.022 26.5333 107.022 24.464V17.552H104.302V14.128H107.022L107.502 9.872H111.118V14.128H115.406V17.552H111.118V24.496C111.118 25.264 111.278 25.7973 111.598 26.096C111.939 26.3733 112.515 26.512 113.326 26.512H115.31V30H112.526Z" fill="white"/>
<path d="M123.755 30.384C122.389 30.384 121.269 30.1707 120.395 29.744C119.52 29.296 118.869 28.7093 118.442 27.984C118.016 27.2587 117.802 26.4587 117.802 25.584C117.802 24.112 118.379 22.9173 119.531 22C120.683 21.0827 122.41 20.624 124.715 20.624H128.747V20.24C128.747 19.152 128.437 18.352 127.818 17.84C127.2 17.328 126.432 17.072 125.514 17.072C124.682 17.072 123.957 17.2747 123.339 17.68C122.72 18.064 122.336 18.64 122.187 19.408H118.187C118.293 18.256 118.677 17.2533 119.339 16.4C120.021 15.5467 120.896 14.896 121.963 14.448C123.029 13.9787 124.224 13.744 125.547 13.744C127.808 13.744 129.589 14.3093 130.891 15.44C132.192 16.5707 132.842 18.1707 132.842 20.24V30H129.354L128.971 27.44C128.501 28.2933 127.84 28.9973 126.986 29.552C126.154 30.1067 125.077 30.384 123.755 30.384ZM124.683 27.184C125.856 27.184 126.762 26.8 127.402 26.032C128.064 25.264 128.48 24.3147 128.65 23.184H125.162C124.075 23.184 123.296 23.3867 122.826 23.792C122.357 24.176 122.122 24.656 122.122 25.232C122.122 25.8507 122.357 26.3307 122.826 26.672C123.296 27.0133 123.915 27.184 124.683 27.184Z" fill="white"/>
<path d="M138.319 11.664C137.573 11.664 136.954 11.44 136.463 10.992C135.994 10.544 135.759 9.97867 135.759 9.296C135.759 8.61333 135.994 8.05867 136.463 7.632C136.954 7.184 137.573 6.96 138.319 6.96C139.066 6.96 139.674 7.184 140.143 7.632C140.634 8.05867 140.879 8.61333 140.879 9.296C140.879 9.97867 140.634 10.544 140.143 10.992C139.674 11.44 139.066 11.664 138.319 11.664ZM136.271 30V14.128H140.367V30H136.271Z" fill="white"/>
<path d="M144.003 30V14.128H147.618L147.939 16.816C148.429 15.8773 149.133 15.1307 150.051 14.576C150.989 14.0213 152.088 13.744 153.346 13.744C155.309 13.744 156.835 14.3627 157.923 15.6C159.01 16.8373 159.555 18.6507 159.555 21.04V30H155.458V21.424C155.458 20.0587 155.181 19.0133 154.626 18.288C154.072 17.5627 153.208 17.2 152.035 17.2C150.883 17.2 149.933 17.6053 149.187 18.416C148.461 19.2267 148.098 20.3573 148.098 21.808V30H144.003Z" fill="white"/>
<path d="M168.303 30.384C166.938 30.384 165.818 30.1707 164.943 29.744C164.069 29.296 163.418 28.7093 162.991 27.984C162.565 27.2587 162.351 26.4587 162.351 25.584C162.351 24.112 162.927 22.9173 164.079 22C165.231 21.0827 166.959 20.624 169.263 20.624H173.295V20.24C173.295 19.152 172.986 18.352 172.367 17.84C171.749 17.328 170.981 17.072 170.063 17.072C169.231 17.072 168.506 17.2747 167.887 17.68C167.269 18.064 166.885 18.64 166.735 19.408H162.735C162.842 18.256 163.226 17.2533 163.887 16.4C164.57 15.5467 165.445 14.896 166.511 14.448C167.578 13.9787 168.773 13.744 170.095 13.744C172.357 13.744 174.138 14.3093 175.439 15.44C176.741 16.5707 177.391 18.1707 177.391 20.24V30H173.903L173.519 27.44C173.05 28.2933 172.389 28.9973 171.535 29.552C170.703 30.1067 169.626 30.384 168.303 30.384ZM169.231 27.184C170.405 27.184 171.311 26.8 171.951 26.032C172.613 25.264 173.029 24.3147 173.199 23.184H169.711C168.623 23.184 167.845 23.3867 167.375 23.792C166.906 24.176 166.671 24.656 166.671 25.232C166.671 25.8507 166.906 26.3307 167.375 26.672C167.845 27.0133 168.463 27.184 169.231 27.184Z" fill="white"/>
<path d="M190.068 30.384C188.873 30.384 187.828 30.16 186.932 29.712C186.036 29.264 185.311 28.6347 184.756 27.824L184.308 30H180.66V6.96H184.756V16.4C185.268 15.696 185.94 15.0773 186.772 14.544C187.625 14.0107 188.724 13.744 190.068 13.744C191.561 13.744 192.895 14.1067 194.068 14.832C195.241 15.5573 196.169 16.5493 196.852 17.808C197.535 19.0667 197.876 20.496 197.876 22.096C197.876 23.696 197.535 25.1253 196.852 26.384C196.169 27.6213 195.241 28.6027 194.068 29.328C192.895 30.032 191.561 30.384 190.068 30.384ZM189.204 26.8C190.505 26.8 191.583 26.3627 192.436 25.488C193.289 24.6133 193.716 23.4827 193.716 22.096C193.716 20.7093 193.289 19.568 192.436 18.672C191.583 17.776 190.505 17.328 189.204 17.328C187.881 17.328 186.793 17.776 185.94 18.672C185.108 19.5467 184.692 20.6773 184.692 22.064C184.692 23.4507 185.108 24.592 185.94 25.488C186.793 26.3627 187.881 26.8 189.204 26.8Z" fill="white"/>
<path d="M200.895 30V6.96H204.991V30H200.895Z" fill="white"/>
<path d="M216.248 30.384C214.648 30.384 213.23 30.0427 211.992 29.36C210.755 28.6773 209.784 27.7173 209.08 26.48C208.376 25.2427 208.024 23.8133 208.024 22.192C208.024 20.5493 208.366 19.088 209.048 17.808C209.752 16.528 210.712 15.536 211.928 14.832C213.166 14.1067 214.616 13.744 216.28 13.744C217.838 13.744 219.214 14.0853 220.408 14.768C221.603 15.4507 222.531 16.3893 223.192 17.584C223.875 18.7573 224.216 20.0693 224.216 21.52C224.216 21.7547 224.206 22 224.184 22.256C224.184 22.512 224.174 22.7787 224.152 23.056H212.088C212.174 24.2933 212.6 25.264 213.368 25.968C214.158 26.672 215.107 27.024 216.216 27.024C217.048 27.024 217.742 26.8427 218.296 26.48C218.872 26.096 219.299 25.6053 219.576 25.008H223.736C223.438 26.0107 222.936 26.928 222.232 27.76C221.55 28.5707 220.696 29.2107 219.672 29.68C218.67 30.1493 217.528 30.384 216.248 30.384ZM216.28 17.072C215.278 17.072 214.392 17.36 213.624 17.936C212.856 18.4907 212.366 19.344 212.152 20.496H220.056C219.992 19.4507 219.608 18.6187 218.904 18C218.2 17.3813 217.326 17.072 216.28 17.072Z" fill="white"/>
<path d="M20.4986 8.91377V1.08704L15.9557 1.63057C12.6759 1.80449 9.56602 4.52935 8.42105 5.87004C6.47091 8.04413 4.57987 9.23988 3.87812 9.566C2.99169 9.91385 0.923361 10.0008 0 10.0008V17.8275C7.2687 18.3493 12.4838 13.6968 14.1828 11.3053C15.6011 9.39207 18.9843 8.91377 20.4986 8.91377Z" fill="white"/>
<path d="M40 7.82672V0C33.1302 0.217409 32.3546 1.41316 30.6925 2.28279C29.3629 2.9785 27.4054 5.18158 26.5928 6.19616C24.2881 8.54417 20.9049 8.98624 19.5014 8.91377V16.5231C25.9723 17.0449 30.7664 13.4794 32.3546 11.6314C32.4432 11.1096 34.386 9.45729 35.3463 8.69636C36.6759 8.00065 39.0028 7.82672 40 7.82672Z" fill="#69D9F1"/>
<path d="M20.4986 28.0458V20.219L15.9557 20.7626C12.6759 20.9365 9.56602 23.6613 8.42105 25.002C6.47091 27.1761 4.57987 28.3719 3.87812 28.698C2.99169 29.0458 0.923361 29.1328 0 29.1328V36.9595C7.2687 37.4813 12.4838 32.8288 14.1828 30.4373C15.6011 28.5241 18.9843 28.0458 20.4986 28.0458Z" fill="white"/>
<path d="M40 26.9587V19.132C33.1302 19.3494 32.3546 20.5451 30.6925 21.4148C29.3629 22.1105 27.4054 24.3136 26.5928 25.3281C24.2881 27.6762 20.9049 28.1182 19.5014 28.0458V35.6551C25.9723 36.1769 30.7664 32.6113 32.3546 30.7634C32.4432 30.2416 34.386 28.5893 35.3463 27.8284C36.6759 27.1326 39.0028 26.9587 40 26.9587Z" fill="#69D9F1"/>
</svg>
